<svg xmlns="http://www.w3.org/2000/svg" viewBox="-50 -50 1100 1100" width="100" height="100"><rect x="-50" y="-50" width="1100" height="1100" fill="#FFF"/><path fill="#000" d="M 20 0 L 40 0 L 40 40 L 0 40 L 0 20 A 20 20 0 0 1 20 0 M 40 0 L 80 0 L 80 40 L 40 40 L 40 0 M 80 0 L 120 0 L 120 40 L 80 40 L 80 0 M 120 0 L 160 0 L 160 40 L 120 40 L 120 0 M 160 0 L 200 0 L 200 40 L 160 40 L 160 0 M 200 0 L 240 0 L 240 40 L 200 40 L 200 0 M 240 0 L 260 0 A 20 20 0 0 1 280 20 L 280 40 L 240 40 L 240 0  M 340 0 L 360 0 L 360 40 L 340 40 A 20 20 0 0 1 320 20 L 320 20 A 20 20 0 0 1 340 0 M 360 0 L 400 0 L 400 40 L 360 40 L 360 0 M 400 0 L 440 0 L 440 40 L 400 40 L 400 0 M 440 0 L 460 0 A 20 20 0 0 1 480 20 L 480 40 L 440 40 L 440 0 M 480 20 L 480 40 L 500 40 A 20 20 0 0 1 480 20  M 580 0 L 580 0 A 20 20 0 0 1 600 20 L 600 20 A 20 20 0 0 1 580 40 L 580 40 A 20 20 0 0 1 560 20 L 560 20 A 20 20 0 0 1 580 0    M 740 0 L 760 0 L 760 40 L 720 40 L 720 20 A 20 20 0 0 1 740 0 M 760 0 L 800 0 L 800 40 L 760 40 L 760 0 M 800 0 L 840 0 L 840 40 L 800 40 L 800 0 M 840 0 L 880 0 L 880 40 L 840 40 L 840 0 M 880 0 L 920 0 L 920 40 L 880 40 L 880 0 M 920 0 L 960 0 L 960 40 L 920 40 L 920 0 M 960 0 L 980 0 A 20 20 0 0 1 1000 20 L 1000 40 L 960 40 L 960 0 M 0 40 L 40 40 L 40 80 L 0 80 L 0 40 M 60 40 L 40 40 L 40 60 A 20 20 0 0 1 60 40    M 240 60 L 240 40 L 220 40 A 20 20 0 0 1 240 60 M 240 40 L 280 40 L 280 80 L 240 80 L 240 40    M 440 60 L 440 40 L 420 40 A 20 20 0 0 1 440 60 M 440 40 L 480 40 L 480 80 L 440 80 L 440 40 M 480 40 L 520 40 L 520 80 L 480 80 L 480 40 M 520 40 L 540 40 A 20 20 0 0 1 560 60 L 560 80 L 520 80 L 520 40     M 720 40 L 760 40 L 760 80 L 720 80 L 720 40 M 780 40 L 760 40 L 760 60 A 20 20 0 0 1 780 40    M 960 60 L 960 40 L 940 40 A 20 20 0 0 1 960 60 M 960 40 L 1000 40 L 1000 80 L 960 80 L 960 40 M 0 80 L 40 80 L 40 120 L 0 120 L 0 80  M 100 80 L 120 80 L 120 120 L 80 120 L 80 100 A 20 20 0 0 1 100 80 M 120 80 L 160 80 L 160 120 L 120 120 L 120 80 M 160 80 L 180 80 A 20 20 0 0 1 200 100 L 200 120 L 160 120 L 160 80  M 240 80 L 280 80 L 280 120 L 240 120 L 240 80   M 380 80 L 380 80 A 20 20 0 0 1 400 100 L 400 100 A 20 20 0 0 1 380 120 L 380 120 A 20 20 0 0 1 360 100 L 360 100 A 20 20 0 0 1 380 80 M 420 120 L 440 120 L 440 100 A 20 20 0 0 1 420 120 M 440 80 L 480 80 L 480 120 L 440 120 L 440 80 M 500 80 L 480 80 L 480 100 A 20 20 0 0 1 500 80 M 520 100 L 520 80 L 500 80 A 20 20 0 0 1 520 100 M 520 80 L 560 80 L 560 120 L 520 120 L 520 80  M 620 80 L 640 80 L 640 120 L 620 120 A 20 20 0 0 1 600 100 L 600 100 A 20 20 0 0 1 620 80 M 640 80 L 660 80 A 20 20 0 0 1 680 100 L 680 100 A 20 20 0 0 1 660 120 L 640 120 L 640 80  M 720 80 L 760 80 L 760 120 L 720 120 L 720 80  M 820 80 L 840 80 L 840 120 L 800 120 L 800 100 A 20 20 0 0 1 820 80 M 840 80 L 880 80 L 880 120 L 840 120 L 840 80 M 880 80 L 900 80 A 20 20 0 0 1 920 100 L 920 120 L 880 120 L 880 80  M 960 80 L 1000 80 L 1000 120 L 960 120 L 960 80 M 0 120 L 40 120 L 40 160 L 0 160 L 0 120  M 80 120 L 120 120 L 120 160 L 80 160 L 80 120 M 120 120 L 160 120 L 160 160 L 120 160 L 120 120 M 160 120 L 200 120 L 200 160 L 160 160 L 160 120  M 240 120 L 280 120 L 280 160 L 240 160 L 240 120    M 420 120 L 440 120 L 440 160 L 400 160 L 400 140 A 20 20 0 0 1 420 120 M 440 120 L 480 120 L 480 160 L 440 160 L 440 120 M 480 140 L 480 160 L 500 160 A 20 20 0 0 1 480 140 M 520 120 L 560 120 L 560 140 A 20 20 0 0 1 540 160 L 540 160 A 20 20 0 0 1 520 140 L 520 120     M 720 120 L 760 120 L 760 160 L 720 160 L 720 120  M 800 120 L 840 120 L 840 160 L 800 160 L 800 120 M 840 120 L 880 120 L 880 160 L 840 160 L 840 120 M 880 120 L 920 120 L 920 160 L 880 160 L 880 120  M 960 120 L 1000 120 L 1000 160 L 960 160 L 960 120 M 0 160 L 40 160 L 40 200 L 0 200 L 0 160  M 80 160 L 120 160 L 120 200 L 100 200 A 20 20 0 0 1 80 180 L 80 160 M 120 160 L 160 160 L 160 200 L 120 200 L 120 160 M 160 160 L 200 160 L 200 180 A 20 20 0 0 1 180 200 L 160 200 L 160 160  M 240 160 L 280 160 L 280 200 L 240 200 L 240 160    M 400 160 L 440 160 L 440 200 L 420 200 A 20 20 0 0 1 400 180 L 400 160 M 440 160 L 480 160 L 480 200 L 440 200 L 440 160 M 480 160 L 500 160 A 20 20 0 0 1 520 180 L 520 180 A 20 20 0 0 1 500 200 L 480 200 L 480 160  M 580 160 L 580 160 A 20 20 0 0 1 600 180 L 600 200 L 560 200 L 560 180 A 20 20 0 0 1 580 160  M 660 160 L 660 160 A 20 20 0 0 1 680 180 L 680 180 A 20 20 0 0 1 660 200 L 660 200 A 20 20 0 0 1 640 180 L 640 180 A 20 20 0 0 1 660 160  M 720 160 L 760 160 L 760 200 L 720 200 L 720 160  M 800 160 L 840 160 L 840 200 L 820 200 A 20 20 0 0 1 800 180 L 800 160 M 840 160 L 880 160 L 880 200 L 840 200 L 840 160 M 880 160 L 920 160 L 920 180 A 20 20 0 0 1 900 200 L 880 200 L 880 160  M 960 160 L 1000 160 L 1000 200 L 960 200 L 960 160 M 0 200 L 40 200 L 40 240 L 0 240 L 0 200 M 40 220 L 40 240 L 60 240 A 20 20 0 0 1 40 220    M 220 240 L 240 240 L 240 220 A 20 20 0 0 1 220 240 M 240 200 L 280 200 L 280 240 L 240 240 L 240 200   M 380 200 L 380 200 A 20 20 0 0 1 400 220 L 400 220 A 20 20 0 0 1 380 240 L 380 240 A 20 20 0 0 1 360 220 L 360 220 A 20 20 0 0 1 380 200 M 440 220 L 440 200 L 420 200 A 20 20 0 0 1 440 220 M 440 200 L 480 200 L 480 220 A 20 20 0 0 1 460 240 L 460 240 A 20 20 0 0 1 440 220 L 440 200 M 500 200 L 480 200 L 480 220 A 20 20 0 0 1 500 200  M 560 200 L 600 200 L 600 240 L 560 240 L 560 200    M 720 200 L 760 200 L 760 240 L 720 240 L 720 200 M 760 220 L 760 240 L 780 240 A 20 20 0 0 1 760 220    M 940 240 L 960 240 L 960 220 A 20 20 0 0 1 940 240 M 960 200 L 1000 200 L 1000 240 L 960 240 L 960 200 M 0 240 L 40 240 L 40 280 L 20 280 A 20 20 0 0 1 0 260 L 0 240 M 40 240 L 80 240 L 80 280 L 40 280 L 40 240 M 80 240 L 120 240 L 120 280 L 80 280 L 80 240 M 120 240 L 160 240 L 160 280 L 120 280 L 120 240 M 160 240 L 200 240 L 200 280 L 160 280 L 160 240 M 200 240 L 240 240 L 240 280 L 200 280 L 200 240 M 240 240 L 280 240 L 280 260 A 20 20 0 0 1 260 280 L 240 280 L 240 240  M 340 240 L 340 240 A 20 20 0 0 1 360 260 L 360 280 L 320 280 L 320 260 A 20 20 0 0 1 340 240 M 360 260 L 360 280 L 380 280 A 20 20 0 0 1 360 260 M 420 240 L 420 240 A 20 20 0 0 1 440 260 L 440 260 A 20 20 0 0 1 420 280 L 420 280 A 20 20 0 0 1 400 260 L 400 260 A 20 20 0 0 1 420 240  M 500 240 L 500 240 A 20 20 0 0 1 520 260 L 520 280 L 480 280 L 480 260 A 20 20 0 0 1 500 240 M 520 260 L 520 280 L 540 280 A 20 20 0 0 1 520 260 M 560 240 L 600 240 L 600 260 A 20 20 0 0 1 580 280 L 580 280 A 20 20 0 0 1 560 260 L 560 240  M 660 240 L 660 240 A 20 20 0 0 1 680 260 L 680 280 L 640 280 L 640 260 A 20 20 0 0 1 660 240  M 720 240 L 760 240 L 760 280 L 740 280 A 20 20 0 0 1 720 260 L 720 240 M 760 240 L 800 240 L 800 280 L 760 280 L 760 240 M 800 240 L 840 240 L 840 280 L 800 280 L 800 240 M 840 240 L 880 240 L 880 280 L 840 280 L 840 240 M 880 240 L 920 240 L 920 280 L 880 280 L 880 240 M 920 240 L 960 240 L 960 280 L 920 280 L 920 240 M 960 240 L 1000 240 L 1000 260 A 20 20 0 0 1 980 280 L 960 280 L 960 240         M 320 280 L 360 280 L 360 320 L 340 320 A 20 20 0 0 1 320 300 L 320 280 M 360 280 L 380 280 A 20 20 0 0 1 400 300 L 400 320 L 360 320 L 360 280   M 480 280 L 520 280 L 520 320 L 480 320 L 480 280 M 520 280 L 540 280 A 20 20 0 0 1 560 300 L 560 300 A 20 20 0 0 1 540 320 L 520 320 L 520 280   M 640 280 L 680 280 L 680 320 L 640 320 L 640 280         M 20 320 L 40 320 L 40 360 L 20 360 A 20 20 0 0 1 0 340 L 0 340 A 20 20 0 0 1 20 320 M 40 320 L 60 320 A 20 20 0 0 1 80 340 L 80 360 L 40 360 L 40 320  M 140 320 L 160 320 L 160 360 L 140 360 A 20 20 0 0 1 120 340 L 120 340 A 20 20 0 0 1 140 320 M 160 320 L 180 320 A 20 20 0 0 1 200 340 L 200 360 L 160 360 L 160 320 M 200 340 L 200 360 L 220 360 A 20 20 0 0 1 200 340 M 260 320 L 260 320 A 20 20 0 0 1 280 340 L 280 340 A 20 20 0 0 1 260 360 L 260 360 A 20 20 0 0 1 240 340 L 240 340 A 20 20 0 0 1 260 320  M 360 340 L 360 320 L 340 320 A 20 20 0 0 1 360 340 M 360 320 L 400 320 L 400 340 A 20 20 0 0 1 380 360 L 380 360 A 20 20 0 0 1 360 340 L 360 320   M 480 320 L 520 320 L 520 340 A 20 20 0 0 1 500 360 L 500 360 A 20 20 0 0 1 480 340 L 480 320 M 540 320 L 520 320 L 520 340 A 20 20 0 0 1 540 320   M 640 320 L 680 320 L 680 340 A 20 20 0 0 1 660 360 L 660 360 A 20 20 0 0 1 640 340 L 640 320  M 740 320 L 740 320 A 20 20 0 0 1 760 340 L 760 340 A 20 20 0 0 1 740 360 L 740 360 A 20 20 0 0 1 720 340 L 720 340 A 20 20 0 0 1 740 320      M 980 320 L 980 320 A 20 20 0 0 1 1000 340 L 1000 340 A 20 20 0 0 1 980 360 L 980 360 A 20 20 0 0 1 960 340 L 960 340 A 20 20 0 0 1 980 320 M 40 380 L 40 360 L 20 360 A 20 20 0 0 1 40 380 M 40 360 L 80 360 L 80 380 A 20 20 0 0 1 60 400 L 60 400 A 20 20 0 0 1 40 380 L 40 360  M 160 380 L 160 360 L 140 360 A 20 20 0 0 1 160 380 M 160 360 L 200 360 L 200 400 L 180 400 A 20 20 0 0 1 160 380 L 160 360 M 200 360 L 220 360 A 20 20 0 0 1 240 380 L 240 400 L 200 400 L 200 360 M 240 380 L 240 400 L 260 400 A 20 20 0 0 1 240 380  M 340 360 L 340 360 A 20 20 0 0 1 360 380 L 360 400 L 320 400 L 320 380 A 20 20 0 0 1 340 360 M 360 380 L 360 400 L 380 400 A 20 20 0 0 1 360 380 M 420 360 L 420 360 A 20 20 0 0 1 440 380 L 440 380 A 20 20 0 0 1 420 400 L 420 400 A 20 20 0 0 1 400 380 L 400 380 A 20 20 0 0 1 420 360  M 500 400 L 520 400 L 520 380 A 20 20 0 0 1 500 400 M 540 360 L 560 360 L 560 400 L 520 400 L 520 380 A 20 20 0 0 1 540 360 M 560 360 L 600 360 L 600 400 L 560 400 L 560 360 M 600 360 L 620 360 A 20 20 0 0 1 640 380 L 640 400 L 600 400 L 600 360 M 640 380 L 640 400 L 660 400 A 20 20 0 0 1 640 380 M 700 360 L 700 360 A 20 20 0 0 1 720 380 L 720 380 A 20 20 0 0 1 700 400 L 700 400 A 20 20 0 0 1 680 380 L 680 380 A 20 20 0 0 1 700 360 M 740 400 L 760 400 L 760 380 A 20 20 0 0 1 740 400 M 780 360 L 800 360 L 800 400 L 760 400 L 760 380 A 20 20 0 0 1 780 360 M 800 360 L 840 360 L 840 400 L 800 400 L 800 360 M 840 360 L 880 360 L 880 400 L 840 400 L 840 360 M 880 360 L 920 360 L 920 400 L 880 400 L 880 360 M 920 360 L 940 360 A 20 20 0 0 1 960 380 L 960 380 A 20 20 0 0 1 940 400 L 920 400 L 920 360  M 20 400 L 20 400 A 20 20 0 0 1 40 420 L 40 440 L 0 440 L 0 420 A 20 20 0 0 1 20 400 M 60 440 L 80 440 L 80 420 A 20 20 0 0 1 60 440 M 40 420 L 40 440 L 60 440 A 20 20 0 0 1 40 420 M 100 400 L 100 400 A 20 20 0 0 1 120 420 L 120 440 L 80 440 L 80 420 A 20 20 0 0 1 100 400 M 120 420 L 120 440 L 140 440 A 20 20 0 0 1 120 420 M 200 420 L 200 400 L 180 400 A 20 20 0 0 1 200 420 M 200 400 L 240 400 L 240 440 L 220 440 A 20 20 0 0 1 200 420 L 200 400 M 240 400 L 260 400 A 20 20 0 0 1 280 420 L 280 420 A 20 20 0 0 1 260 440 L 240 440 L 240 400 M 300 440 L 320 440 L 320 420 A 20 20 0 0 1 300 440 M 320 400 L 360 400 L 360 440 L 320 440 L 320 400 M 360 400 L 380 400 A 20 20 0 0 1 400 420 L 400 420 A 20 20 0 0 1 380 440 L 360 440 L 360 400   M 500 400 L 520 400 L 520 440 L 500 440 A 20 20 0 0 1 480 420 L 480 420 A 20 20 0 0 1 500 400 M 520 400 L 560 400 L 560 420 A 20 20 0 0 1 540 440 L 520 440 L 520 400 M 580 400 L 560 400 L 560 420 A 20 20 0 0 1 580 400 M 600 420 L 600 400 L 580 400 A 20 20 0 0 1 600 420 M 600 400 L 640 400 L 640 440 L 620 440 A 20 20 0 0 1 600 420 L 600 400 M 640 400 L 660 400 A 20 20 0 0 1 680 420 L 680 440 L 640 440 L 640 400  M 740 400 L 760 400 L 760 440 L 740 440 A 20 20 0 0 1 720 420 L 720 420 A 20 20 0 0 1 740 400 M 760 400 L 800 400 L 800 440 L 760 440 L 760 400 M 820 400 L 800 400 L 800 420 A 20 20 0 0 1 820 400 M 840 420 L 840 400 L 820 400 A 20 20 0 0 1 840 420 M 840 400 L 880 400 L 880 440 L 840 440 L 840 400 M 900 400 L 880 400 L 880 420 A 20 20 0 0 1 900 400 M 880 420 L 880 440 L 900 440 A 20 20 0 0 1 880 420 M 940 440 L 960 440 L 960 420 A 20 20 0 0 1 940 440 M 980 400 L 980 400 A 20 20 0 0 1 1000 420 L 1000 440 L 960 440 L 960 420 A 20 20 0 0 1 980 400 M 0 440 L 40 440 L 40 480 L 20 480 A 20 20 0 0 1 0 460 L 0 440 M 40 440 L 80 440 L 80 480 L 40 480 L 40 440 M 80 440 L 120 440 L 120 480 L 80 480 L 80 440 M 120 440 L 140 440 A 20 20 0 0 1 160 460 L 160 480 L 120 480 L 120 440   M 260 480 L 280 480 L 280 460 A 20 20 0 0 1 260 480 M 300 440 L 320 440 L 320 480 L 280 480 L 280 460 A 20 20 0 0 1 300 440 M 320 440 L 360 440 L 360 460 A 20 20 0 0 1 340 480 L 320 480 L 320 440 M 380 440 L 360 440 L 360 460 A 20 20 0 0 1 380 440      M 640 460 L 640 440 L 620 440 A 20 20 0 0 1 640 460 M 620 480 L 640 480 L 640 460 A 20 20 0 0 1 620 480 M 640 440 L 680 440 L 680 480 L 640 480 L 640 440  M 760 460 L 760 440 L 740 440 A 20 20 0 0 1 760 460 M 760 440 L 800 440 L 800 460 A 20 20 0 0 1 780 480 L 780 480 A 20 20 0 0 1 760 460 L 760 440  M 840 440 L 880 440 L 880 480 L 860 480 A 20 20 0 0 1 840 460 L 840 440 M 880 440 L 920 440 L 920 480 L 880 480 L 880 440 M 920 440 L 960 440 L 960 480 L 920 480 L 920 440 M 960 440 L 1000 440 L 1000 480 L 960 480 L 960 440  M 80 500 L 80 480 L 60 480 A 20 20 0 0 1 80 500 M 80 480 L 120 480 L 120 520 L 100 520 A 20 20 0 0 1 80 500 L 80 480 M 120 480 L 160 480 L 160 520 L 120 520 L 120 480   M 260 480 L 280 480 L 280 520 L 260 520 A 20 20 0 0 1 240 500 L 240 500 A 20 20 0 0 1 260 480 M 280 480 L 320 480 L 320 520 L 280 520 L 280 480 M 340 480 L 320 480 L 320 500 A 20 20 0 0 1 340 480 M 340 520 L 360 520 L 360 500 A 20 20 0 0 1 340 520 M 320 500 L 320 520 L 340 520 A 20 20 0 0 1 320 500 M 380 480 L 400 480 L 400 520 L 360 520 L 360 500 A 20 20 0 0 1 380 480 M 400 480 L 420 480 A 20 20 0 0 1 440 500 L 440 520 L 400 520 L 400 480    M 580 520 L 600 520 L 600 500 A 20 20 0 0 1 580 520 M 620 480 L 640 480 L 640 520 L 600 520 L 600 500 A 20 20 0 0 1 620 480 M 640 480 L 680 480 L 680 520 L 640 520 L 640 480 M 680 500 L 680 520 L 700 520 A 20 20 0 0 1 680 500 M 740 480 L 740 480 A 20 20 0 0 1 760 500 L 760 500 A 20 20 0 0 1 740 520 L 740 520 A 20 20 0 0 1 720 500 L 720 500 A 20 20 0 0 1 740 480     M 960 500 L 960 480 L 940 480 A 20 20 0 0 1 960 500 M 960 480 L 1000 480 L 1000 500 A 20 20 0 0 1 980 520 L 980 520 A 20 20 0 0 1 960 500 L 960 480 M 20 520 L 40 520 L 40 560 L 0 560 L 0 540 A 20 20 0 0 1 20 520 M 40 520 L 60 520 A 20 20 0 0 1 80 540 L 80 560 L 40 560 L 40 520 M 120 540 L 120 520 L 100 520 A 20 20 0 0 1 120 540 M 120 520 L 160 520 L 160 560 L 120 560 L 120 520 M 160 540 L 160 560 L 180 560 A 20 20 0 0 1 160 540 M 220 520 L 220 520 A 20 20 0 0 1 240 540 L 240 540 A 20 20 0 0 1 220 560 L 220 560 A 20 20 0 0 1 200 540 L 200 540 A 20 20 0 0 1 220 520 M 280 540 L 280 520 L 260 520 A 20 20 0 0 1 280 540 M 280 520 L 320 520 L 320 560 L 300 560 A 20 20 0 0 1 280 540 L 280 520 M 320 520 L 360 520 L 360 560 L 320 560 L 320 520 M 360 520 L 400 520 L 400 560 L 360 560 L 360 520 M 400 520 L 440 520 L 440 560 L 400 560 L 400 520  M 500 520 L 520 520 L 520 560 L 500 560 A 20 20 0 0 1 480 540 L 480 540 A 20 20 0 0 1 500 520 M 520 520 L 560 520 L 560 560 L 520 560 L 520 520 M 560 520 L 600 520 L 600 560 L 560 560 L 560 520 M 600 520 L 640 520 L 640 560 L 600 560 L 600 520 M 640 520 L 680 520 L 680 560 L 640 560 L 640 520 M 680 520 L 700 520 A 20 20 0 0 1 720 540 L 720 560 L 680 560 L 680 520 M 720 540 L 720 560 L 740 560 A 20 20 0 0 1 720 540  M 820 520 L 820 520 A 20 20 0 0 1 840 540 L 840 560 L 800 560 L 800 540 A 20 20 0 0 1 820 520 M 840 540 L 840 560 L 860 560 A 20 20 0 0 1 840 540 M 900 560 L 920 560 L 920 540 A 20 20 0 0 1 900 560 M 940 520 L 940 520 A 20 20 0 0 1 960 540 L 960 560 L 920 560 L 920 540 A 20 20 0 0 1 940 520 M 960 540 L 960 560 L 980 560 A 20 20 0 0 1 960 540 M 0 560 L 40 560 L 40 600 L 0 600 L 0 560 M 40 560 L 80 560 L 80 580 A 20 20 0 0 1 60 600 L 40 600 L 40 560  M 120 560 L 160 560 L 160 600 L 120 600 L 120 560 M 160 560 L 180 560 A 20 20 0 0 1 200 580 L 200 580 A 20 20 0 0 1 180 600 L 160 600 L 160 560  M 260 560 L 260 560 A 20 20 0 0 1 280 580 L 280 580 A 20 20 0 0 1 260 600 L 260 600 A 20 20 0 0 1 240 580 L 240 580 A 20 20 0 0 1 260 560  M 360 580 L 360 560 L 340 560 A 20 20 0 0 1 360 580 M 360 560 L 400 560 L 400 600 L 380 600 A 20 20 0 0 1 360 580 L 360 560 M 400 560 L 440 560 L 440 580 A 20 20 0 0 1 420 600 L 400 600 L 400 560    M 600 580 L 600 560 L 580 560 A 20 20 0 0 1 600 580 M 600 560 L 640 560 L 640 600 L 620 600 A 20 20 0 0 1 600 580 L 600 560 M 640 560 L 680 560 L 680 600 L 640 600 L 640 560 M 680 560 L 720 560 L 720 600 L 680 600 L 680 560 M 720 560 L 740 560 A 20 20 0 0 1 760 580 L 760 580 A 20 20 0 0 1 740 600 L 720 600 L 720 560  M 800 560 L 840 560 L 840 600 L 820 600 A 20 20 0 0 1 800 580 L 800 560 M 840 560 L 880 560 L 880 600 L 840 600 L 840 560 M 880 560 L 920 560 L 920 600 L 880 600 L 880 560 M 920 560 L 960 560 L 960 600 L 920 600 L 920 560 M 960 560 L 980 560 A 20 20 0 0 1 1000 580 L 1000 600 L 960 600 L 960 560 M 0 600 L 40 600 L 40 640 L 0 640 L 0 600 M 60 600 L 40 600 L 40 620 A 20 20 0 0 1 60 600  M 120 600 L 160 600 L 160 640 L 120 640 L 120 600 M 180 600 L 160 600 L 160 620 A 20 20 0 0 1 180 600   M 300 600 L 300 600 A 20 20 0 0 1 320 620 L 320 620 A 20 20 0 0 1 300 640 L 300 640 A 20 20 0 0 1 280 620 L 280 620 A 20 20 0 0 1 300 600    M 460 640 L 480 640 L 480 620 A 20 20 0 0 1 460 640 M 500 600 L 500 600 A 20 20 0 0 1 520 620 L 520 640 L 480 640 L 480 620 A 20 20 0 0 1 500 600 M 520 620 L 520 640 L 540 640 A 20 20 0 0 1 520 620  M 640 620 L 640 600 L 620 600 A 20 20 0 0 1 640 620 M 640 600 L 680 600 L 680 640 L 640 640 L 640 600 M 680 600 L 720 600 L 720 640 L 680 640 L 680 600 M 740 600 L 720 600 L 720 620 A 20 20 0 0 1 740 600 M 740 640 L 760 640 L 760 620 A 20 20 0 0 1 740 640 M 720 620 L 720 640 L 740 640 A 20 20 0 0 1 720 620 M 780 600 L 780 600 A 20 20 0 0 1 800 620 L 800 640 L 760 640 L 760 620 A 20 20 0 0 1 780 600 M 840 620 L 840 600 L 820 600 A 20 20 0 0 1 840 620 M 800 620 L 800 640 L 820 640 A 20 20 0 0 1 800 620 M 840 600 L 880 600 L 880 640 L 860 640 A 20 20 0 0 1 840 620 L 840 600 M 880 600 L 920 600 L 920 640 L 880 640 L 880 600 M 940 600 L 920 600 L 920 620 A 20 20 0 0 1 940 600 M 960 620 L 960 600 L 940 600 A 20 20 0 0 1 960 620 M 920 620 L 920 640 L 940 640 A 20 20 0 0 1 920 620 M 960 600 L 1000 600 L 1000 620 A 20 20 0 0 1 980 640 L 980 640 A 20 20 0 0 1 960 620 L 960 600 M 0 640 L 40 640 L 40 660 A 20 20 0 0 1 20 680 L 20 680 A 20 20 0 0 1 0 660 L 0 640   M 120 640 L 160 640 L 160 660 A 20 20 0 0 1 140 680 L 140 680 A 20 20 0 0 1 120 660 L 120 640  M 220 640 L 240 640 L 240 680 L 220 680 A 20 20 0 0 1 200 660 L 200 660 A 20 20 0 0 1 220 640 M 240 640 L 260 640 A 20 20 0 0 1 280 660 L 280 660 A 20 20 0 0 1 260 680 L 240 680 L 240 640    M 420 640 L 440 640 L 440 680 L 400 680 L 400 660 A 20 20 0 0 1 420 640 M 440 640 L 480 640 L 480 680 L 440 680 L 440 640 M 480 640 L 520 640 L 520 680 L 480 680 L 480 640 M 520 640 L 540 640 A 20 20 0 0 1 560 660 L 560 680 L 520 680 L 520 640  M 620 680 L 640 680 L 640 660 A 20 20 0 0 1 620 680 M 640 640 L 680 640 L 680 680 L 640 680 L 640 640 M 680 640 L 720 640 L 720 680 L 680 680 L 680 640 M 720 640 L 760 640 L 760 680 L 720 680 L 720 640 M 760 640 L 800 640 L 800 680 L 760 680 L 760 640 M 800 640 L 820 640 A 20 20 0 0 1 840 660 L 840 680 L 800 680 L 800 640 M 880 660 L 880 640 L 860 640 A 20 20 0 0 1 880 660 M 880 640 L 920 640 L 920 680 L 880 680 L 880 640 M 920 640 L 940 640 A 20 20 0 0 1 960 660 L 960 680 L 920 680 L 920 640          M 340 680 L 340 680 A 20 20 0 0 1 360 700 L 360 700 A 20 20 0 0 1 340 720 L 340 720 A 20 20 0 0 1 320 700 L 320 700 A 20 20 0 0 1 340 680  M 400 680 L 440 680 L 440 720 L 420 720 A 20 20 0 0 1 400 700 L 400 680 M 440 680 L 480 680 L 480 700 A 20 20 0 0 1 460 720 L 440 720 L 440 680 M 500 680 L 480 680 L 480 700 A 20 20 0 0 1 500 680 M 520 700 L 520 680 L 500 680 A 20 20 0 0 1 520 700 M 520 680 L 560 680 L 560 700 A 20 20 0 0 1 540 720 L 540 720 A 20 20 0 0 1 520 700 L 520 680  M 620 680 L 640 680 L 640 720 L 620 720 A 20 20 0 0 1 600 700 L 600 700 A 20 20 0 0 1 620 680 M 640 680 L 680 680 L 680 720 L 640 720 L 640 680 M 700 680 L 680 680 L 680 700 A 20 20 0 0 1 700 680  M 800 700 L 800 680 L 780 680 A 20 20 0 0 1 800 700 M 800 680 L 840 680 L 840 720 L 800 720 L 800 680  M 880 680 L 920 680 L 920 720 L 900 720 A 20 20 0 0 1 880 700 L 880 680 M 920 680 L 960 680 L 960 700 A 20 20 0 0 1 940 720 L 920 720 L 920 680  M 20 720 L 40 720 L 40 760 L 0 760 L 0 740 A 20 20 0 0 1 20 720 M 40 720 L 80 720 L 80 760 L 40 760 L 40 720 M 80 720 L 120 720 L 120 760 L 80 760 L 80 720 M 120 720 L 160 720 L 160 760 L 120 760 L 120 720 M 160 720 L 200 720 L 200 760 L 160 760 L 160 720 M 200 720 L 240 720 L 240 760 L 200 760 L 200 720 M 240 720 L 260 720 A 20 20 0 0 1 280 740 L 280 760 L 240 760 L 240 720      M 500 720 L 500 720 A 20 20 0 0 1 520 740 L 520 740 A 20 20 0 0 1 500 760 L 500 760 A 20 20 0 0 1 480 740 L 480 740 A 20 20 0 0 1 500 720   M 640 740 L 640 720 L 620 720 A 20 20 0 0 1 640 740 M 620 760 L 640 760 L 640 740 A 20 20 0 0 1 620 760 M 640 720 L 680 720 L 680 760 L 640 760 L 640 720  M 740 720 L 740 720 A 20 20 0 0 1 760 740 L 760 740 A 20 20 0 0 1 740 760 L 740 760 A 20 20 0 0 1 720 740 L 720 740 A 20 20 0 0 1 740 720  M 800 720 L 840 720 L 840 760 L 800 760 L 800 720    M 980 720 L 980 720 A 20 20 0 0 1 1000 740 L 1000 760 L 960 760 L 960 740 A 20 20 0 0 1 980 720 M 0 760 L 40 760 L 40 800 L 0 800 L 0 760 M 60 760 L 40 760 L 40 780 A 20 20 0 0 1 60 760    M 240 780 L 240 760 L 220 760 A 20 20 0 0 1 240 780 M 240 760 L 280 760 L 280 800 L 240 800 L 240 760   M 380 760 L 400 760 L 400 800 L 380 800 A 20 20 0 0 1 360 780 L 360 780 A 20 20 0 0 1 380 760 M 400 760 L 440 760 L 440 800 L 400 800 L 400 760 M 440 760 L 460 760 A 20 20 0 0 1 480 780 L 480 800 L 440 800 L 440 760 M 480 780 L 480 800 L 500 800 A 20 20 0 0 1 480 780 M 540 760 L 540 760 A 20 20 0 0 1 560 780 L 560 780 A 20 20 0 0 1 540 800 L 540 800 A 20 20 0 0 1 520 780 L 520 780 A 20 20 0 0 1 540 760 M 580 800 L 600 800 L 600 780 A 20 20 0 0 1 580 800 M 620 760 L 640 760 L 640 800 L 600 800 L 600 780 A 20 20 0 0 1 620 760 M 640 760 L 680 760 L 680 800 L 640 800 L 640 760 M 680 780 L 680 800 L 700 800 A 20 20 0 0 1 680 780  M 780 800 L 800 800 L 800 780 A 20 20 0 0 1 780 800 M 800 760 L 840 760 L 840 800 L 800 800 L 800 760    M 960 760 L 1000 760 L 1000 780 A 20 20 0 0 1 980 800 L 980 800 A 20 20 0 0 1 960 780 L 960 760 M 0 800 L 40 800 L 40 840 L 0 840 L 0 800  M 100 800 L 120 800 L 120 840 L 80 840 L 80 820 A 20 20 0 0 1 100 800 M 120 800 L 160 800 L 160 840 L 120 840 L 120 800 M 160 800 L 180 800 A 20 20 0 0 1 200 820 L 200 840 L 160 840 L 160 800  M 240 800 L 280 800 L 280 840 L 240 840 L 240 800  M 340 800 L 340 800 A 20 20 0 0 1 360 820 L 360 840 L 320 840 L 320 820 A 20 20 0 0 1 340 800  M 440 820 L 440 800 L 420 800 A 20 20 0 0 1 440 820 M 440 800 L 480 800 L 480 840 L 460 840 A 20 20 0 0 1 440 820 L 440 800 M 480 800 L 500 800 A 20 20 0 0 1 520 820 L 520 840 L 480 840 L 480 800 M 540 840 L 560 840 L 560 820 A 20 20 0 0 1 540 840 M 520 820 L 520 840 L 540 840 A 20 20 0 0 1 520 820 M 580 800 L 600 800 L 600 840 L 560 840 L 560 820 A 20 20 0 0 1 580 800 M 600 800 L 640 800 L 640 840 L 600 840 L 600 800 M 640 800 L 680 800 L 680 840 L 640 840 L 640 800 M 680 800 L 720 800 L 720 840 L 680 840 L 680 800 M 720 800 L 760 800 L 760 840 L 720 840 L 720 800 M 760 800 L 800 800 L 800 840 L 760 840 L 760 800 M 800 800 L 840 800 L 840 820 A 20 20 0 0 1 820 840 L 800 840 L 800 800     M 0 840 L 40 840 L 40 880 L 0 880 L 0 840  M 80 840 L 120 840 L 120 880 L 80 880 L 80 840 M 120 840 L 160 840 L 160 880 L 120 880 L 120 840 M 160 840 L 200 840 L 200 880 L 160 880 L 160 840  M 240 840 L 280 840 L 280 880 L 240 880 L 240 840  M 320 840 L 360 840 L 360 860 A 20 20 0 0 1 340 880 L 340 880 A 20 20 0 0 1 320 860 L 320 840  M 420 840 L 420 840 A 20 20 0 0 1 440 860 L 440 860 A 20 20 0 0 1 420 880 L 420 880 A 20 20 0 0 1 400 860 L 400 860 A 20 20 0 0 1 420 840 M 480 860 L 480 840 L 460 840 A 20 20 0 0 1 480 860 M 480 840 L 520 840 L 520 880 L 500 880 A 20 20 0 0 1 480 860 L 480 840 M 520 840 L 560 840 L 560 880 L 520 880 L 520 840 M 560 840 L 600 840 L 600 880 L 560 880 L 560 840 M 600 840 L 640 840 L 640 880 L 600 880 L 600 840 M 640 840 L 680 840 L 680 860 A 20 20 0 0 1 660 880 L 640 880 L 640 840 M 700 840 L 680 840 L 680 860 A 20 20 0 0 1 700 840 M 720 860 L 720 840 L 700 840 A 20 20 0 0 1 720 860 M 720 840 L 760 840 L 760 860 A 20 20 0 0 1 740 880 L 740 880 A 20 20 0 0 1 720 860 L 720 840 M 780 840 L 760 840 L 760 860 A 20 20 0 0 1 780 840   M 900 880 L 920 880 L 920 860 A 20 20 0 0 1 900 880 M 940 840 L 960 840 L 960 880 L 920 880 L 920 860 A 20 20 0 0 1 940 840 M 960 840 L 980 840 A 20 20 0 0 1 1000 860 L 1000 880 L 960 880 L 960 840 M 0 880 L 40 880 L 40 920 L 0 920 L 0 880  M 80 880 L 120 880 L 120 920 L 100 920 A 20 20 0 0 1 80 900 L 80 880 M 120 880 L 160 880 L 160 920 L 120 920 L 120 880 M 160 880 L 200 880 L 200 900 A 20 20 0 0 1 180 920 L 160 920 L 160 880  M 240 880 L 280 880 L 280 920 L 240 920 L 240 880     M 460 880 L 460 880 A 20 20 0 0 1 480 900 L 480 900 A 20 20 0 0 1 460 920 L 460 920 A 20 20 0 0 1 440 900 L 440 900 A 20 20 0 0 1 460 880      M 700 880 L 700 880 A 20 20 0 0 1 720 900 L 720 900 A 20 20 0 0 1 700 920 L 700 920 A 20 20 0 0 1 680 900 L 680 900 A 20 20 0 0 1 700 880  M 780 920 L 800 920 L 800 900 A 20 20 0 0 1 780 920 M 820 880 L 840 880 L 840 920 L 800 920 L 800 900 A 20 20 0 0 1 820 880 M 840 880 L 880 880 L 880 920 L 840 920 L 840 880 M 880 880 L 920 880 L 920 920 L 880 920 L 880 880 M 920 880 L 960 880 L 960 920 L 920 920 L 920 880 M 960 880 L 1000 880 L 1000 920 L 960 920 L 960 880 M 0 920 L 40 920 L 40 960 L 0 960 L 0 920 M 40 940 L 40 960 L 60 960 A 20 20 0 0 1 40 940    M 220 960 L 240 960 L 240 940 A 20 20 0 0 1 220 960 M 240 920 L 280 920 L 280 960 L 240 960 L 240 920  M 340 920 L 340 920 A 20 20 0 0 1 360 940 L 360 960 L 320 960 L 320 940 A 20 20 0 0 1 340 920 M 360 940 L 360 960 L 380 960 A 20 20 0 0 1 360 940     M 580 920 L 580 920 A 20 20 0 0 1 600 940 L 600 960 L 560 960 L 560 940 A 20 20 0 0 1 580 920     M 780 920 L 800 920 L 800 960 L 780 960 A 20 20 0 0 1 760 940 L 760 940 A 20 20 0 0 1 780 920 M 800 920 L 840 920 L 840 940 A 20 20 0 0 1 820 960 L 800 960 L 800 920 M 860 920 L 840 920 L 840 940 A 20 20 0 0 1 860 920 M 880 940 L 880 920 L 860 920 A 20 20 0 0 1 880 940 M 880 920 L 920 920 L 920 960 L 900 960 A 20 20 0 0 1 880 940 L 880 920 M 920 920 L 960 920 L 960 960 L 920 960 L 920 920 M 960 920 L 1000 920 L 1000 960 L 960 960 L 960 920 M 0 960 L 40 960 L 40 1000 L 20 1000 A 20 20 0 0 1 0 980 L 0 960 M 40 960 L 80 960 L 80 1000 L 40 1000 L 40 960 M 80 960 L 120 960 L 120 1000 L 80 1000 L 80 960 M 120 960 L 160 960 L 160 1000 L 120 1000 L 120 960 M 160 960 L 200 960 L 200 1000 L 160 1000 L 160 960 M 200 960 L 240 960 L 240 1000 L 200 1000 L 200 960 M 240 960 L 280 960 L 280 980 A 20 20 0 0 1 260 1000 L 240 1000 L 240 960  M 320 960 L 360 960 L 360 1000 L 340 1000 A 20 20 0 0 1 320 980 L 320 960 M 360 960 L 380 960 A 20 20 0 0 1 400 980 L 400 980 A 20 20 0 0 1 380 1000 L 360 1000 L 360 960   M 500 960 L 500 960 A 20 20 0 0 1 520 980 L 520 980 A 20 20 0 0 1 500 1000 L 500 1000 A 20 20 0 0 1 480 980 L 480 980 A 20 20 0 0 1 500 960  M 560 960 L 600 960 L 600 980 A 20 20 0 0 1 580 1000 L 580 1000 A 20 20 0 0 1 560 980 L 560 960  M 660 960 L 680 960 L 680 1000 L 660 1000 A 20 20 0 0 1 640 980 L 640 980 A 20 20 0 0 1 660 960 M 680 960 L 700 960 A 20 20 0 0 1 720 980 L 720 980 A 20 20 0 0 1 700 1000 L 680 1000 L 680 960    M 860 960 L 860 960 A 20 20 0 0 1 880 980 L 880 980 A 20 20 0 0 1 860 1000 L 860 1000 A 20 20 0 0 1 840 980 L 840 980 A 20 20 0 0 1 860 960  M 960 980 L 960 960 L 940 960 A 20 20 0 0 1 960 980 M 960 960 L 1000 960 L 1000 980 A 20 20 0 0 1 980 1000 L 980 1000 A 20 20 0 0 1 960 980 L 960 960"/></svg>