<svg xmlns="http://www.w3.org/2000/svg" viewBox="-50 -50 1100 1100" width="100" height="100"><rect x="-50" y="-50" width="1100" height="1100" fill="#FFF"/><path fill="#000" d="M 0 0 L 40 0 L 40 40 L 0 40 L 0 0 A 0 0 0 0 1 0 0 M 40 0 L 80 0 L 80 40 L 40 40 L 40 0 M 80 0 L 120 0 L 120 40 L 80 40 L 80 0 M 120 0 L 160 0 L 160 40 L 120 40 L 120 0 M 160 0 L 200 0 L 200 40 L 160 40 L 160 0 M 200 0 L 240 0 L 240 40 L 200 40 L 200 0 M 240 0 L 280 0 A 0 0 0 0 1 280 0 L 280 40 L 240 40 L 240 0  M 320 0 L 360 0 L 360 40 L 320 40 A 0 0 0 0 1 320 40 L 320 0 A 0 0 0 0 1 320 0 M 360 0 L 400 0 L 400 40 L 360 40 L 360 0 M 400 0 L 440 0 L 440 40 L 400 40 L 400 0 M 440 0 L 480 0 A 0 0 0 0 1 480 0 L 480 40 L 440 40 L 440 0 M 480 40 L 480 40 L 480 40 A 0 0 0 0 1 480 40  M 560 0 L 600 0 A 0 0 0 0 1 600 0 L 600 40 A 0 0 0 0 1 600 40 L 560 40 A 0 0 0 0 1 560 40 L 560 0 A 0 0 0 0 1 560 0    M 720 0 L 760 0 L 760 40 L 720 40 L 720 0 A 0 0 0 0 1 720 0 M 760 0 L 800 0 L 800 40 L 760 40 L 760 0 M 800 0 L 840 0 L 840 40 L 800 40 L 800 0 M 840 0 L 880 0 L 880 40 L 840 40 L 840 0 M 880 0 L 920 0 L 920 40 L 880 40 L 880 0 M 920 0 L 960 0 L 960 40 L 920 40 L 920 0 M 960 0 L 1000 0 A 0 0 0 0 1 1000 0 L 1000 40 L 960 40 L 960 0 M 0 40 L 40 40 L 40 80 L 0 80 L 0 40 M 40 40 L 40 40 L 40 40 A 0 0 0 0 1 40 40    M 240 40 L 240 40 L 240 40 A 0 0 0 0 1 240 40 M 240 40 L 280 40 L 280 80 L 240 80 L 240 40    M 440 40 L 440 40 L 440 40 A 0 0 0 0 1 440 40 M 440 40 L 480 40 L 480 80 L 440 80 L 440 40 M 480 40 L 520 40 L 520 80 L 480 80 L 480 40 M 520 40 L 560 40 A 0 0 0 0 1 560 40 L 560 80 L 520 80 L 520 40     M 720 40 L 760 40 L 760 80 L 720 80 L 720 40 M 760 40 L 760 40 L 760 40 A 0 0 0 0 1 760 40    M 960 40 L 960 40 L 960 40 A 0 0 0 0 1 960 40 M 960 40 L 1000 40 L 1000 80 L 960 80 L 960 40 M 0 80 L 40 80 L 40 120 L 0 120 L 0 80  M 80 80 L 120 80 L 120 120 L 80 120 L 80 80 A 0 0 0 0 1 80 80 M 120 80 L 160 80 L 160 120 L 120 120 L 120 80 M 160 80 L 200 80 A 0 0 0 0 1 200 80 L 200 120 L 160 120 L 160 80  M 240 80 L 280 80 L 280 120 L 240 120 L 240 80   M 360 80 L 400 80 A 0 0 0 0 1 400 80 L 400 120 A 0 0 0 0 1 400 120 L 360 120 A 0 0 0 0 1 360 120 L 360 80 A 0 0 0 0 1 360 80 M 440 120 L 440 120 L 440 120 A 0 0 0 0 1 440 120 M 440 80 L 480 80 L 480 120 L 440 120 L 440 80 M 480 80 L 480 80 L 480 80 A 0 0 0 0 1 480 80 M 520 80 L 520 80 L 520 80 A 0 0 0 0 1 520 80 M 520 80 L 560 80 L 560 120 L 520 120 L 520 80  M 600 80 L 640 80 L 640 120 L 600 120 A 0 0 0 0 1 600 120 L 600 80 A 0 0 0 0 1 600 80 M 640 80 L 680 80 A 0 0 0 0 1 680 80 L 680 120 A 0 0 0 0 1 680 120 L 640 120 L 640 80  M 720 80 L 760 80 L 760 120 L 720 120 L 720 80  M 800 80 L 840 80 L 840 120 L 800 120 L 800 80 A 0 0 0 0 1 800 80 M 840 80 L 880 80 L 880 120 L 840 120 L 840 80 M 880 80 L 920 80 A 0 0 0 0 1 920 80 L 920 120 L 880 120 L 880 80  M 960 80 L 1000 80 L 1000 120 L 960 120 L 960 80 M 0 120 L 40 120 L 40 160 L 0 160 L 0 120  M 80 120 L 120 120 L 120 160 L 80 160 L 80 120 M 120 120 L 160 120 L 160 160 L 120 160 L 120 120 M 160 120 L 200 120 L 200 160 L 160 160 L 160 120  M 240 120 L 280 120 L 280 160 L 240 160 L 240 120    M 400 120 L 440 120 L 440 160 L 400 160 L 400 120 A 0 0 0 0 1 400 120 M 440 120 L 480 120 L 480 160 L 440 160 L 440 120 M 480 160 L 480 160 L 480 160 A 0 0 0 0 1 480 160 M 520 120 L 560 120 L 560 160 A 0 0 0 0 1 560 160 L 520 160 A 0 0 0 0 1 520 160 L 520 120     M 720 120 L 760 120 L 760 160 L 720 160 L 720 120  M 800 120 L 840 120 L 840 160 L 800 160 L 800 120 M 840 120 L 880 120 L 880 160 L 840 160 L 840 120 M 880 120 L 920 120 L 920 160 L 880 160 L 880 120  M 960 120 L 1000 120 L 1000 160 L 960 160 L 960 120 M 0 160 L 40 160 L 40 200 L 0 200 L 0 160  M 80 160 L 120 160 L 120 200 L 80 200 A 0 0 0 0 1 80 200 L 80 160 M 120 160 L 160 160 L 160 200 L 120 200 L 120 160 M 160 160 L 200 160 L 200 200 A 0 0 0 0 1 200 200 L 160 200 L 160 160  M 240 160 L 280 160 L 280 200 L 240 200 L 240 160    M 400 160 L 440 160 L 440 200 L 400 200 A 0 0 0 0 1 400 200 L 400 160 M 440 160 L 480 160 L 480 200 L 440 200 L 440 160 M 480 160 L 520 160 A 0 0 0 0 1 520 160 L 520 200 A 0 0 0 0 1 520 200 L 480 200 L 480 160  M 560 160 L 600 160 A 0 0 0 0 1 600 160 L 600 200 L 560 200 L 560 160 A 0 0 0 0 1 560 160  M 640 160 L 680 160 A 0 0 0 0 1 680 160 L 680 200 A 0 0 0 0 1 680 200 L 640 200 A 0 0 0 0 1 640 200 L 640 160 A 0 0 0 0 1 640 160  M 720 160 L 760 160 L 760 200 L 720 200 L 720 160  M 800 160 L 840 160 L 840 200 L 800 200 A 0 0 0 0 1 800 200 L 800 160 M 840 160 L 880 160 L 880 200 L 840 200 L 840 160 M 880 160 L 920 160 L 920 200 A 0 0 0 0 1 920 200 L 880 200 L 880 160  M 960 160 L 1000 160 L 1000 200 L 960 200 L 960 160 M 0 200 L 40 200 L 40 240 L 0 240 L 0 200 M 40 240 L 40 240 L 40 240 A 0 0 0 0 1 40 240    M 240 240 L 240 240 L 240 240 A 0 0 0 0 1 240 240 M 240 200 L 280 200 L 280 240 L 240 240 L 240 200   M 360 200 L 400 200 A 0 0 0 0 1 400 200 L 400 240 A 0 0 0 0 1 400 240 L 360 240 A 0 0 0 0 1 360 240 L 360 200 A 0 0 0 0 1 360 200 M 440 200 L 440 200 L 440 200 A 0 0 0 0 1 440 200 M 440 200 L 480 200 L 480 240 A 0 0 0 0 1 480 240 L 440 240 A 0 0 0 0 1 440 240 L 440 200 M 480 200 L 480 200 L 480 200 A 0 0 0 0 1 480 200  M 560 200 L 600 200 L 600 240 L 560 240 L 560 200    M 720 200 L 760 200 L 760 240 L 720 240 L 720 200 M 760 240 L 760 240 L 760 240 A 0 0 0 0 1 760 240    M 960 240 L 960 240 L 960 240 A 0 0 0 0 1 960 240 M 960 200 L 1000 200 L 1000 240 L 960 240 L 960 200 M 0 240 L 40 240 L 40 280 L 0 280 A 0 0 0 0 1 0 280 L 0 240 M 40 240 L 80 240 L 80 280 L 40 280 L 40 240 M 80 240 L 120 240 L 120 280 L 80 280 L 80 240 M 120 240 L 160 240 L 160 280 L 120 280 L 120 240 M 160 240 L 200 240 L 200 280 L 160 280 L 160 240 M 200 240 L 240 240 L 240 280 L 200 280 L 200 240 M 240 240 L 280 240 L 280 280 A 0 0 0 0 1 280 280 L 240 280 L 240 240  M 320 240 L 360 240 A 0 0 0 0 1 360 240 L 360 280 L 320 280 L 320 240 A 0 0 0 0 1 320 240 M 360 280 L 360 280 L 360 280 A 0 0 0 0 1 360 280 M 400 240 L 440 240 A 0 0 0 0 1 440 240 L 440 280 A 0 0 0 0 1 440 280 L 400 280 A 0 0 0 0 1 400 280 L 400 240 A 0 0 0 0 1 400 240  M 480 240 L 520 240 A 0 0 0 0 1 520 240 L 520 280 L 480 280 L 480 240 A 0 0 0 0 1 480 240 M 520 280 L 520 280 L 520 280 A 0 0 0 0 1 520 280 M 560 240 L 600 240 L 600 280 A 0 0 0 0 1 600 280 L 560 280 A 0 0 0 0 1 560 280 L 560 240  M 640 240 L 680 240 A 0 0 0 0 1 680 240 L 680 280 L 640 280 L 640 240 A 0 0 0 0 1 640 240  M 720 240 L 760 240 L 760 280 L 720 280 A 0 0 0 0 1 720 280 L 720 240 M 760 240 L 800 240 L 800 280 L 760 280 L 760 240 M 800 240 L 840 240 L 840 280 L 800 280 L 800 240 M 840 240 L 880 240 L 880 280 L 840 280 L 840 240 M 880 240 L 920 240 L 920 280 L 880 280 L 880 240 M 920 240 L 960 240 L 960 280 L 920 280 L 920 240 M 960 240 L 1000 240 L 1000 280 A 0 0 0 0 1 1000 280 L 960 280 L 960 240         M 320 280 L 360 280 L 360 320 L 320 320 A 0 0 0 0 1 320 320 L 320 280 M 360 280 L 400 280 A 0 0 0 0 1 400 280 L 400 320 L 360 320 L 360 280   M 480 280 L 520 280 L 520 320 L 480 320 L 480 280 M 520 280 L 560 280 A 0 0 0 0 1 560 280 L 560 320 A 0 0 0 0 1 560 320 L 520 320 L 520 280   M 640 280 L 680 280 L 680 320 L 640 320 L 640 280         M 0 320 L 40 320 L 40 360 L 0 360 A 0 0 0 0 1 0 360 L 0 320 A 0 0 0 0 1 0 320 M 40 320 L 80 320 A 0 0 0 0 1 80 320 L 80 360 L 40 360 L 40 320  M 120 320 L 160 320 L 160 360 L 120 360 A 0 0 0 0 1 120 360 L 120 320 A 0 0 0 0 1 120 320 M 160 320 L 200 320 A 0 0 0 0 1 200 320 L 200 360 L 160 360 L 160 320 M 200 360 L 200 360 L 200 360 A 0 0 0 0 1 200 360 M 240 320 L 280 320 A 0 0 0 0 1 280 320 L 280 360 A 0 0 0 0 1 280 360 L 240 360 A 0 0 0 0 1 240 360 L 240 320 A 0 0 0 0 1 240 320  M 360 320 L 360 320 L 360 320 A 0 0 0 0 1 360 320 M 360 320 L 400 320 L 400 360 A 0 0 0 0 1 400 360 L 360 360 A 0 0 0 0 1 360 360 L 360 320   M 480 320 L 520 320 L 520 360 A 0 0 0 0 1 520 360 L 480 360 A 0 0 0 0 1 480 360 L 480 320 M 520 320 L 520 320 L 520 320 A 0 0 0 0 1 520 320   M 640 320 L 680 320 L 680 360 A 0 0 0 0 1 680 360 L 640 360 A 0 0 0 0 1 640 360 L 640 320  M 720 320 L 760 320 A 0 0 0 0 1 760 320 L 760 360 A 0 0 0 0 1 760 360 L 720 360 A 0 0 0 0 1 720 360 L 720 320 A 0 0 0 0 1 720 320      M 960 320 L 1000 320 A 0 0 0 0 1 1000 320 L 1000 360 A 0 0 0 0 1 1000 360 L 960 360 A 0 0 0 0 1 960 360 L 960 320 A 0 0 0 0 1 960 320 M 40 360 L 40 360 L 40 360 A 0 0 0 0 1 40 360 M 40 360 L 80 360 L 80 400 A 0 0 0 0 1 80 400 L 40 400 A 0 0 0 0 1 40 400 L 40 360  M 160 360 L 160 360 L 160 360 A 0 0 0 0 1 160 360 M 160 360 L 200 360 L 200 400 L 160 400 A 0 0 0 0 1 160 400 L 160 360 M 200 360 L 240 360 A 0 0 0 0 1 240 360 L 240 400 L 200 400 L 200 360 M 240 400 L 240 400 L 240 400 A 0 0 0 0 1 240 400  M 320 360 L 360 360 A 0 0 0 0 1 360 360 L 360 400 L 320 400 L 320 360 A 0 0 0 0 1 320 360 M 360 400 L 360 400 L 360 400 A 0 0 0 0 1 360 400 M 400 360 L 440 360 A 0 0 0 0 1 440 360 L 440 400 A 0 0 0 0 1 440 400 L 400 400 A 0 0 0 0 1 400 400 L 400 360 A 0 0 0 0 1 400 360  M 520 400 L 520 400 L 520 400 A 0 0 0 0 1 520 400 M 520 360 L 560 360 L 560 400 L 520 400 L 520 360 A 0 0 0 0 1 520 360 M 560 360 L 600 360 L 600 400 L 560 400 L 560 360 M 600 360 L 640 360 A 0 0 0 0 1 640 360 L 640 400 L 600 400 L 600 360 M 640 400 L 640 400 L 640 400 A 0 0 0 0 1 640 400 M 680 360 L 720 360 A 0 0 0 0 1 720 360 L 720 400 A 0 0 0 0 1 720 400 L 680 400 A 0 0 0 0 1 680 400 L 680 360 A 0 0 0 0 1 680 360 M 760 400 L 760 400 L 760 400 A 0 0 0 0 1 760 400 M 760 360 L 800 360 L 800 400 L 760 400 L 760 360 A 0 0 0 0 1 760 360 M 800 360 L 840 360 L 840 400 L 800 400 L 800 360 M 840 360 L 880 360 L 880 400 L 840 400 L 840 360 M 880 360 L 920 360 L 920 400 L 880 400 L 880 360 M 920 360 L 960 360 A 0 0 0 0 1 960 360 L 960 400 A 0 0 0 0 1 960 400 L 920 400 L 920 360  M 0 400 L 40 400 A 0 0 0 0 1 40 400 L 40 440 L 0 440 L 0 400 A 0 0 0 0 1 0 400 M 80 440 L 80 440 L 80 440 A 0 0 0 0 1 80 440 M 40 440 L 40 440 L 40 440 A 0 0 0 0 1 40 440 M 80 400 L 120 400 A 0 0 0 0 1 120 400 L 120 440 L 80 440 L 80 400 A 0 0 0 0 1 80 400 M 120 440 L 120 440 L 120 440 A 0 0 0 0 1 120 440 M 200 400 L 200 400 L 200 400 A 0 0 0 0 1 200 400 M 200 400 L 240 400 L 240 440 L 200 440 A 0 0 0 0 1 200 440 L 200 400 M 240 400 L 280 400 A 0 0 0 0 1 280 400 L 280 440 A 0 0 0 0 1 280 440 L 240 440 L 240 400 M 320 440 L 320 440 L 320 440 A 0 0 0 0 1 320 440 M 320 400 L 360 400 L 360 440 L 320 440 L 320 400 M 360 400 L 400 400 A 0 0 0 0 1 400 400 L 400 440 A 0 0 0 0 1 400 440 L 360 440 L 360 400   M 480 400 L 520 400 L 520 440 L 480 440 A 0 0 0 0 1 480 440 L 480 400 A 0 0 0 0 1 480 400 M 520 400 L 560 400 L 560 440 A 0 0 0 0 1 560 440 L 520 440 L 520 400 M 560 400 L 560 400 L 560 400 A 0 0 0 0 1 560 400 M 600 400 L 600 400 L 600 400 A 0 0 0 0 1 600 400 M 600 400 L 640 400 L 640 440 L 600 440 A 0 0 0 0 1 600 440 L 600 400 M 640 400 L 680 400 A 0 0 0 0 1 680 400 L 680 440 L 640 440 L 640 400  M 720 400 L 760 400 L 760 440 L 720 440 A 0 0 0 0 1 720 440 L 720 400 A 0 0 0 0 1 720 400 M 760 400 L 800 400 L 800 440 L 760 440 L 760 400 M 800 400 L 800 400 L 800 400 A 0 0 0 0 1 800 400 M 840 400 L 840 400 L 840 400 A 0 0 0 0 1 840 400 M 840 400 L 880 400 L 880 440 L 840 440 L 840 400 M 880 400 L 880 400 L 880 400 A 0 0 0 0 1 880 400 M 880 440 L 880 440 L 880 440 A 0 0 0 0 1 880 440 M 960 440 L 960 440 L 960 440 A 0 0 0 0 1 960 440 M 960 400 L 1000 400 A 0 0 0 0 1 1000 400 L 1000 440 L 960 440 L 960 400 A 0 0 0 0 1 960 400 M 0 440 L 40 440 L 40 480 L 0 480 A 0 0 0 0 1 0 480 L 0 440 M 40 440 L 80 440 L 80 480 L 40 480 L 40 440 M 80 440 L 120 440 L 120 480 L 80 480 L 80 440 M 120 440 L 160 440 A 0 0 0 0 1 160 440 L 160 480 L 120 480 L 120 440   M 280 480 L 280 480 L 280 480 A 0 0 0 0 1 280 480 M 280 440 L 320 440 L 320 480 L 280 480 L 280 440 A 0 0 0 0 1 280 440 M 320 440 L 360 440 L 360 480 A 0 0 0 0 1 360 480 L 320 480 L 320 440 M 360 440 L 360 440 L 360 440 A 0 0 0 0 1 360 440      M 640 440 L 640 440 L 640 440 A 0 0 0 0 1 640 440 M 640 480 L 640 480 L 640 480 A 0 0 0 0 1 640 480 M 640 440 L 680 440 L 680 480 L 640 480 L 640 440  M 760 440 L 760 440 L 760 440 A 0 0 0 0 1 760 440 M 760 440 L 800 440 L 800 480 A 0 0 0 0 1 800 480 L 760 480 A 0 0 0 0 1 760 480 L 760 440  M 840 440 L 880 440 L 880 480 L 840 480 A 0 0 0 0 1 840 480 L 840 440 M 880 440 L 920 440 L 920 480 L 880 480 L 880 440 M 920 440 L 960 440 L 960 480 L 920 480 L 920 440 M 960 440 L 1000 440 L 1000 480 L 960 480 L 960 440  M 80 480 L 80 480 L 80 480 A 0 0 0 0 1 80 480 M 80 480 L 120 480 L 120 520 L 80 520 A 0 0 0 0 1 80 520 L 80 480 M 120 480 L 160 480 L 160 520 L 120 520 L 120 480   M 240 480 L 280 480 L 280 520 L 240 520 A 0 0 0 0 1 240 520 L 240 480 A 0 0 0 0 1 240 480 M 280 480 L 320 480 L 320 520 L 280 520 L 280 480 M 320 480 L 320 480 L 320 480 A 0 0 0 0 1 320 480 M 360 520 L 360 520 L 360 520 A 0 0 0 0 1 360 520 M 320 520 L 320 520 L 320 520 A 0 0 0 0 1 320 520 M 360 480 L 400 480 L 400 520 L 360 520 L 360 480 A 0 0 0 0 1 360 480 M 400 480 L 440 480 A 0 0 0 0 1 440 480 L 440 520 L 400 520 L 400 480    M 600 520 L 600 520 L 600 520 A 0 0 0 0 1 600 520 M 600 480 L 640 480 L 640 520 L 600 520 L 600 480 A 0 0 0 0 1 600 480 M 640 480 L 680 480 L 680 520 L 640 520 L 640 480 M 680 520 L 680 520 L 680 520 A 0 0 0 0 1 680 520 M 720 480 L 760 480 A 0 0 0 0 1 760 480 L 760 520 A 0 0 0 0 1 760 520 L 720 520 A 0 0 0 0 1 720 520 L 720 480 A 0 0 0 0 1 720 480     M 960 480 L 960 480 L 960 480 A 0 0 0 0 1 960 480 M 960 480 L 1000 480 L 1000 520 A 0 0 0 0 1 1000 520 L 960 520 A 0 0 0 0 1 960 520 L 960 480 M 0 520 L 40 520 L 40 560 L 0 560 L 0 520 A 0 0 0 0 1 0 520 M 40 520 L 80 520 A 0 0 0 0 1 80 520 L 80 560 L 40 560 L 40 520 M 120 520 L 120 520 L 120 520 A 0 0 0 0 1 120 520 M 120 520 L 160 520 L 160 560 L 120 560 L 120 520 M 160 560 L 160 560 L 160 560 A 0 0 0 0 1 160 560 M 200 520 L 240 520 A 0 0 0 0 1 240 520 L 240 560 A 0 0 0 0 1 240 560 L 200 560 A 0 0 0 0 1 200 560 L 200 520 A 0 0 0 0 1 200 520 M 280 520 L 280 520 L 280 520 A 0 0 0 0 1 280 520 M 280 520 L 320 520 L 320 560 L 280 560 A 0 0 0 0 1 280 560 L 280 520 M 320 520 L 360 520 L 360 560 L 320 560 L 320 520 M 360 520 L 400 520 L 400 560 L 360 560 L 360 520 M 400 520 L 440 520 L 440 560 L 400 560 L 400 520  M 480 520 L 520 520 L 520 560 L 480 560 A 0 0 0 0 1 480 560 L 480 520 A 0 0 0 0 1 480 520 M 520 520 L 560 520 L 560 560 L 520 560 L 520 520 M 560 520 L 600 520 L 600 560 L 560 560 L 560 520 M 600 520 L 640 520 L 640 560 L 600 560 L 600 520 M 640 520 L 680 520 L 680 560 L 640 560 L 640 520 M 680 520 L 720 520 A 0 0 0 0 1 720 520 L 720 560 L 680 560 L 680 520 M 720 560 L 720 560 L 720 560 A 0 0 0 0 1 720 560  M 800 520 L 840 520 A 0 0 0 0 1 840 520 L 840 560 L 800 560 L 800 520 A 0 0 0 0 1 800 520 M 840 560 L 840 560 L 840 560 A 0 0 0 0 1 840 560 M 920 560 L 920 560 L 920 560 A 0 0 0 0 1 920 560 M 920 520 L 960 520 A 0 0 0 0 1 960 520 L 960 560 L 920 560 L 920 520 A 0 0 0 0 1 920 520 M 960 560 L 960 560 L 960 560 A 0 0 0 0 1 960 560 M 0 560 L 40 560 L 40 600 L 0 600 L 0 560 M 40 560 L 80 560 L 80 600 A 0 0 0 0 1 80 600 L 40 600 L 40 560  M 120 560 L 160 560 L 160 600 L 120 600 L 120 560 M 160 560 L 200 560 A 0 0 0 0 1 200 560 L 200 600 A 0 0 0 0 1 200 600 L 160 600 L 160 560  M 240 560 L 280 560 A 0 0 0 0 1 280 560 L 280 600 A 0 0 0 0 1 280 600 L 240 600 A 0 0 0 0 1 240 600 L 240 560 A 0 0 0 0 1 240 560  M 360 560 L 360 560 L 360 560 A 0 0 0 0 1 360 560 M 360 560 L 400 560 L 400 600 L 360 600 A 0 0 0 0 1 360 600 L 360 560 M 400 560 L 440 560 L 440 600 A 0 0 0 0 1 440 600 L 400 600 L 400 560    M 600 560 L 600 560 L 600 560 A 0 0 0 0 1 600 560 M 600 560 L 640 560 L 640 600 L 600 600 A 0 0 0 0 1 600 600 L 600 560 M 640 560 L 680 560 L 680 600 L 640 600 L 640 560 M 680 560 L 720 560 L 720 600 L 680 600 L 680 560 M 720 560 L 760 560 A 0 0 0 0 1 760 560 L 760 600 A 0 0 0 0 1 760 600 L 720 600 L 720 560  M 800 560 L 840 560 L 840 600 L 800 600 A 0 0 0 0 1 800 600 L 800 560 M 840 560 L 880 560 L 880 600 L 840 600 L 840 560 M 880 560 L 920 560 L 920 600 L 880 600 L 880 560 M 920 560 L 960 560 L 960 600 L 920 600 L 920 560 M 960 560 L 1000 560 A 0 0 0 0 1 1000 560 L 1000 600 L 960 600 L 960 560 M 0 600 L 40 600 L 40 640 L 0 640 L 0 600 M 40 600 L 40 600 L 40 600 A 0 0 0 0 1 40 600  M 120 600 L 160 600 L 160 640 L 120 640 L 120 600 M 160 600 L 160 600 L 160 600 A 0 0 0 0 1 160 600   M 280 600 L 320 600 A 0 0 0 0 1 320 600 L 320 640 A 0 0 0 0 1 320 640 L 280 640 A 0 0 0 0 1 280 640 L 280 600 A 0 0 0 0 1 280 600    M 480 640 L 480 640 L 480 640 A 0 0 0 0 1 480 640 M 480 600 L 520 600 A 0 0 0 0 1 520 600 L 520 640 L 480 640 L 480 600 A 0 0 0 0 1 480 600 M 520 640 L 520 640 L 520 640 A 0 0 0 0 1 520 640  M 640 600 L 640 600 L 640 600 A 0 0 0 0 1 640 600 M 640 600 L 680 600 L 680 640 L 640 640 L 640 600 M 680 600 L 720 600 L 720 640 L 680 640 L 680 600 M 720 600 L 720 600 L 720 600 A 0 0 0 0 1 720 600 M 760 640 L 760 640 L 760 640 A 0 0 0 0 1 760 640 M 720 640 L 720 640 L 720 640 A 0 0 0 0 1 720 640 M 760 600 L 800 600 A 0 0 0 0 1 800 600 L 800 640 L 760 640 L 760 600 A 0 0 0 0 1 760 600 M 840 600 L 840 600 L 840 600 A 0 0 0 0 1 840 600 M 800 640 L 800 640 L 800 640 A 0 0 0 0 1 800 640 M 840 600 L 880 600 L 880 640 L 840 640 A 0 0 0 0 1 840 640 L 840 600 M 880 600 L 920 600 L 920 640 L 880 640 L 880 600 M 920 600 L 920 600 L 920 600 A 0 0 0 0 1 920 600 M 960 600 L 960 600 L 960 600 A 0 0 0 0 1 960 600 M 920 640 L 920 640 L 920 640 A 0 0 0 0 1 920 640 M 960 600 L 1000 600 L 1000 640 A 0 0 0 0 1 1000 640 L 960 640 A 0 0 0 0 1 960 640 L 960 600 M 0 640 L 40 640 L 40 680 A 0 0 0 0 1 40 680 L 0 680 A 0 0 0 0 1 0 680 L 0 640   M 120 640 L 160 640 L 160 680 A 0 0 0 0 1 160 680 L 120 680 A 0 0 0 0 1 120 680 L 120 640  M 200 640 L 240 640 L 240 680 L 200 680 A 0 0 0 0 1 200 680 L 200 640 A 0 0 0 0 1 200 640 M 240 640 L 280 640 A 0 0 0 0 1 280 640 L 280 680 A 0 0 0 0 1 280 680 L 240 680 L 240 640    M 400 640 L 440 640 L 440 680 L 400 680 L 400 640 A 0 0 0 0 1 400 640 M 440 640 L 480 640 L 480 680 L 440 680 L 440 640 M 480 640 L 520 640 L 520 680 L 480 680 L 480 640 M 520 640 L 560 640 A 0 0 0 0 1 560 640 L 560 680 L 520 680 L 520 640  M 640 680 L 640 680 L 640 680 A 0 0 0 0 1 640 680 M 640 640 L 680 640 L 680 680 L 640 680 L 640 640 M 680 640 L 720 640 L 720 680 L 680 680 L 680 640 M 720 640 L 760 640 L 760 680 L 720 680 L 720 640 M 760 640 L 800 640 L 800 680 L 760 680 L 760 640 M 800 640 L 840 640 A 0 0 0 0 1 840 640 L 840 680 L 800 680 L 800 640 M 880 640 L 880 640 L 880 640 A 0 0 0 0 1 880 640 M 880 640 L 920 640 L 920 680 L 880 680 L 880 640 M 920 640 L 960 640 A 0 0 0 0 1 960 640 L 960 680 L 920 680 L 920 640          M 320 680 L 360 680 A 0 0 0 0 1 360 680 L 360 720 A 0 0 0 0 1 360 720 L 320 720 A 0 0 0 0 1 320 720 L 320 680 A 0 0 0 0 1 320 680  M 400 680 L 440 680 L 440 720 L 400 720 A 0 0 0 0 1 400 720 L 400 680 M 440 680 L 480 680 L 480 720 A 0 0 0 0 1 480 720 L 440 720 L 440 680 M 480 680 L 480 680 L 480 680 A 0 0 0 0 1 480 680 M 520 680 L 520 680 L 520 680 A 0 0 0 0 1 520 680 M 520 680 L 560 680 L 560 720 A 0 0 0 0 1 560 720 L 520 720 A 0 0 0 0 1 520 720 L 520 680  M 600 680 L 640 680 L 640 720 L 600 720 A 0 0 0 0 1 600 720 L 600 680 A 0 0 0 0 1 600 680 M 640 680 L 680 680 L 680 720 L 640 720 L 640 680 M 680 680 L 680 680 L 680 680 A 0 0 0 0 1 680 680  M 800 680 L 800 680 L 800 680 A 0 0 0 0 1 800 680 M 800 680 L 840 680 L 840 720 L 800 720 L 800 680  M 880 680 L 920 680 L 920 720 L 880 720 A 0 0 0 0 1 880 720 L 880 680 M 920 680 L 960 680 L 960 720 A 0 0 0 0 1 960 720 L 920 720 L 920 680  M 0 720 L 40 720 L 40 760 L 0 760 L 0 720 A 0 0 0 0 1 0 720 M 40 720 L 80 720 L 80 760 L 40 760 L 40 720 M 80 720 L 120 720 L 120 760 L 80 760 L 80 720 M 120 720 L 160 720 L 160 760 L 120 760 L 120 720 M 160 720 L 200 720 L 200 760 L 160 760 L 160 720 M 200 720 L 240 720 L 240 760 L 200 760 L 200 720 M 240 720 L 280 720 A 0 0 0 0 1 280 720 L 280 760 L 240 760 L 240 720      M 480 720 L 520 720 A 0 0 0 0 1 520 720 L 520 760 A 0 0 0 0 1 520 760 L 480 760 A 0 0 0 0 1 480 760 L 480 720 A 0 0 0 0 1 480 720   M 640 720 L 640 720 L 640 720 A 0 0 0 0 1 640 720 M 640 760 L 640 760 L 640 760 A 0 0 0 0 1 640 760 M 640 720 L 680 720 L 680 760 L 640 760 L 640 720  M 720 720 L 760 720 A 0 0 0 0 1 760 720 L 760 760 A 0 0 0 0 1 760 760 L 720 760 A 0 0 0 0 1 720 760 L 720 720 A 0 0 0 0 1 720 720  M 800 720 L 840 720 L 840 760 L 800 760 L 800 720    M 960 720 L 1000 720 A 0 0 0 0 1 1000 720 L 1000 760 L 960 760 L 960 720 A 0 0 0 0 1 960 720 M 0 760 L 40 760 L 40 800 L 0 800 L 0 760 M 40 760 L 40 760 L 40 760 A 0 0 0 0 1 40 760    M 240 760 L 240 760 L 240 760 A 0 0 0 0 1 240 760 M 240 760 L 280 760 L 280 800 L 240 800 L 240 760   M 360 760 L 400 760 L 400 800 L 360 800 A 0 0 0 0 1 360 800 L 360 760 A 0 0 0 0 1 360 760 M 400 760 L 440 760 L 440 800 L 400 800 L 400 760 M 440 760 L 480 760 A 0 0 0 0 1 480 760 L 480 800 L 440 800 L 440 760 M 480 800 L 480 800 L 480 800 A 0 0 0 0 1 480 800 M 520 760 L 560 760 A 0 0 0 0 1 560 760 L 560 800 A 0 0 0 0 1 560 800 L 520 800 A 0 0 0 0 1 520 800 L 520 760 A 0 0 0 0 1 520 760 M 600 800 L 600 800 L 600 800 A 0 0 0 0 1 600 800 M 600 760 L 640 760 L 640 800 L 600 800 L 600 760 A 0 0 0 0 1 600 760 M 640 760 L 680 760 L 680 800 L 640 800 L 640 760 M 680 800 L 680 800 L 680 800 A 0 0 0 0 1 680 800  M 800 800 L 800 800 L 800 800 A 0 0 0 0 1 800 800 M 800 760 L 840 760 L 840 800 L 800 800 L 800 760    M 960 760 L 1000 760 L 1000 800 A 0 0 0 0 1 1000 800 L 960 800 A 0 0 0 0 1 960 800 L 960 760 M 0 800 L 40 800 L 40 840 L 0 840 L 0 800  M 80 800 L 120 800 L 120 840 L 80 840 L 80 800 A 0 0 0 0 1 80 800 M 120 800 L 160 800 L 160 840 L 120 840 L 120 800 M 160 800 L 200 800 A 0 0 0 0 1 200 800 L 200 840 L 160 840 L 160 800  M 240 800 L 280 800 L 280 840 L 240 840 L 240 800  M 320 800 L 360 800 A 0 0 0 0 1 360 800 L 360 840 L 320 840 L 320 800 A 0 0 0 0 1 320 800  M 440 800 L 440 800 L 440 800 A 0 0 0 0 1 440 800 M 440 800 L 480 800 L 480 840 L 440 840 A 0 0 0 0 1 440 840 L 440 800 M 480 800 L 520 800 A 0 0 0 0 1 520 800 L 520 840 L 480 840 L 480 800 M 560 840 L 560 840 L 560 840 A 0 0 0 0 1 560 840 M 520 840 L 520 840 L 520 840 A 0 0 0 0 1 520 840 M 560 800 L 600 800 L 600 840 L 560 840 L 560 800 A 0 0 0 0 1 560 800 M 600 800 L 640 800 L 640 840 L 600 840 L 600 800 M 640 800 L 680 800 L 680 840 L 640 840 L 640 800 M 680 800 L 720 800 L 720 840 L 680 840 L 680 800 M 720 800 L 760 800 L 760 840 L 720 840 L 720 800 M 760 800 L 800 800 L 800 840 L 760 840 L 760 800 M 800 800 L 840 800 L 840 840 A 0 0 0 0 1 840 840 L 800 840 L 800 800     M 0 840 L 40 840 L 40 880 L 0 880 L 0 840  M 80 840 L 120 840 L 120 880 L 80 880 L 80 840 M 120 840 L 160 840 L 160 880 L 120 880 L 120 840 M 160 840 L 200 840 L 200 880 L 160 880 L 160 840  M 240 840 L 280 840 L 280 880 L 240 880 L 240 840  M 320 840 L 360 840 L 360 880 A 0 0 0 0 1 360 880 L 320 880 A 0 0 0 0 1 320 880 L 320 840  M 400 840 L 440 840 A 0 0 0 0 1 440 840 L 440 880 A 0 0 0 0 1 440 880 L 400 880 A 0 0 0 0 1 400 880 L 400 840 A 0 0 0 0 1 400 840 M 480 840 L 480 840 L 480 840 A 0 0 0 0 1 480 840 M 480 840 L 520 840 L 520 880 L 480 880 A 0 0 0 0 1 480 880 L 480 840 M 520 840 L 560 840 L 560 880 L 520 880 L 520 840 M 560 840 L 600 840 L 600 880 L 560 880 L 560 840 M 600 840 L 640 840 L 640 880 L 600 880 L 600 840 M 640 840 L 680 840 L 680 880 A 0 0 0 0 1 680 880 L 640 880 L 640 840 M 680 840 L 680 840 L 680 840 A 0 0 0 0 1 680 840 M 720 840 L 720 840 L 720 840 A 0 0 0 0 1 720 840 M 720 840 L 760 840 L 760 880 A 0 0 0 0 1 760 880 L 720 880 A 0 0 0 0 1 720 880 L 720 840 M 760 840 L 760 840 L 760 840 A 0 0 0 0 1 760 840   M 920 880 L 920 880 L 920 880 A 0 0 0 0 1 920 880 M 920 840 L 960 840 L 960 880 L 920 880 L 920 840 A 0 0 0 0 1 920 840 M 960 840 L 1000 840 A 0 0 0 0 1 1000 840 L 1000 880 L 960 880 L 960 840 M 0 880 L 40 880 L 40 920 L 0 920 L 0 880  M 80 880 L 120 880 L 120 920 L 80 920 A 0 0 0 0 1 80 920 L 80 880 M 120 880 L 160 880 L 160 920 L 120 920 L 120 880 M 160 880 L 200 880 L 200 920 A 0 0 0 0 1 200 920 L 160 920 L 160 880  M 240 880 L 280 880 L 280 920 L 240 920 L 240 880     M 440 880 L 480 880 A 0 0 0 0 1 480 880 L 480 920 A 0 0 0 0 1 480 920 L 440 920 A 0 0 0 0 1 440 920 L 440 880 A 0 0 0 0 1 440 880      M 680 880 L 720 880 A 0 0 0 0 1 720 880 L 720 920 A 0 0 0 0 1 720 920 L 680 920 A 0 0 0 0 1 680 920 L 680 880 A 0 0 0 0 1 680 880  M 800 920 L 800 920 L 800 920 A 0 0 0 0 1 800 920 M 800 880 L 840 880 L 840 920 L 800 920 L 800 880 A 0 0 0 0 1 800 880 M 840 880 L 880 880 L 880 920 L 840 920 L 840 880 M 880 880 L 920 880 L 920 920 L 880 920 L 880 880 M 920 880 L 960 880 L 960 920 L 920 920 L 920 880 M 960 880 L 1000 880 L 1000 920 L 960 920 L 960 880 M 0 920 L 40 920 L 40 960 L 0 960 L 0 920 M 40 960 L 40 960 L 40 960 A 0 0 0 0 1 40 960    M 240 960 L 240 960 L 240 960 A 0 0 0 0 1 240 960 M 240 920 L 280 920 L 280 960 L 240 960 L 240 920  M 320 920 L 360 920 A 0 0 0 0 1 360 920 L 360 960 L 320 960 L 320 920 A 0 0 0 0 1 320 920 M 360 960 L 360 960 L 360 960 A 0 0 0 0 1 360 960     M 560 920 L 600 920 A 0 0 0 0 1 600 920 L 600 960 L 560 960 L 560 920 A 0 0 0 0 1 560 920     M 760 920 L 800 920 L 800 960 L 760 960 A 0 0 0 0 1 760 960 L 760 920 A 0 0 0 0 1 760 920 M 800 920 L 840 920 L 840 960 A 0 0 0 0 1 840 960 L 800 960 L 800 920 M 840 920 L 840 920 L 840 920 A 0 0 0 0 1 840 920 M 880 920 L 880 920 L 880 920 A 0 0 0 0 1 880 920 M 880 920 L 920 920 L 920 960 L 880 960 A 0 0 0 0 1 880 960 L 880 920 M 920 920 L 960 920 L 960 960 L 920 960 L 920 920 M 960 920 L 1000 920 L 1000 960 L 960 960 L 960 920 M 0 960 L 40 960 L 40 1000 L 0 1000 A 0 0 0 0 1 0 1000 L 0 960 M 40 960 L 80 960 L 80 1000 L 40 1000 L 40 960 M 80 960 L 120 960 L 120 1000 L 80 1000 L 80 960 M 120 960 L 160 960 L 160 1000 L 120 1000 L 120 960 M 160 960 L 200 960 L 200 1000 L 160 1000 L 160 960 M 200 960 L 240 960 L 240 1000 L 200 1000 L 200 960 M 240 960 L 280 960 L 280 1000 A 0 0 0 0 1 280 1000 L 240 1000 L 240 960  M 320 960 L 360 960 L 360 1000 L 320 1000 A 0 0 0 0 1 320 1000 L 320 960 M 360 960 L 400 960 A 0 0 0 0 1 400 960 L 400 1000 A 0 0 0 0 1 400 1000 L 360 1000 L 360 960   M 480 960 L 520 960 A 0 0 0 0 1 520 960 L 520 1000 A 0 0 0 0 1 520 1000 L 480 1000 A 0 0 0 0 1 480 1000 L 480 960 A 0 0 0 0 1 480 960  M 560 960 L 600 960 L 600 1000 A 0 0 0 0 1 600 1000 L 560 1000 A 0 0 0 0 1 560 1000 L 560 960  M 640 960 L 680 960 L 680 1000 L 640 1000 A 0 0 0 0 1 640 1000 L 640 960 A 0 0 0 0 1 640 960 M 680 960 L 720 960 A 0 0 0 0 1 720 960 L 720 1000 A 0 0 0 0 1 720 1000 L 680 1000 L 680 960    M 840 960 L 880 960 A 0 0 0 0 1 880 960 L 880 1000 A 0 0 0 0 1 880 1000 L 840 1000 A 0 0 0 0 1 840 1000 L 840 960 A 0 0 0 0 1 840 960  M 960 960 L 960 960 L 960 960 A 0 0 0 0 1 960 960 M 960 960 L 1000 960 L 1000 1000 A 0 0 0 0 1 1000 1000 L 960 1000 A 0 0 0 0 1 960 1000 L 960 960"/></svg>